/* XPM */
static char * ovotext_xpm[] = {
"48 48 65 1",
" 	c None",
".	c #2A2B29",
"+	c #30312F",
"@	c #323431",
"#	c #3A3635",
"$	c #373836",
"%	c #3C3D3A",
"&	c #41413F",
"*	c #484845",
"=	c #4E504D",
"-	c #544F4E",
";	c #565855",
">	c #5C5856",
",	c #625D5C",
"'	c #5F615E",
")	c #6C6766",
"!	c #676966",
"~	c #6D6F6C",
"{	c #746F6E",
"]	c #757774",
"^	c #7D7877",
"/	c #7E807D",
"(	c #847F7D",
"_	c #878785",
":	c #8C8E8B",
"<	c #928D8C",
"[	c #949693",
"}	c #9A9594",
"|	c #A29D9C",
"1	c #9EA09D",
"2	c #A7A2A0",
"3	c #ABA6A5",
"4	c #AEA9A8",
"5	c #A9ABA8",
"6	c #B2ADAB",
"7	c #AEB0AD",
"8	c #B4AFAD",
"9	c #B8B2B1",
"0	c #B2B4B1",
"a	c #BCB7B5",
"b	c #B9BBB8",
"c	c #C0BAB9",
"d	c #C3BEBD",
"e	c #BEC0BD",
"f	c #C9C3C2",
"g	c #C3C5C2",
"h	c #CCC7C5",
"i	c #C7C9C5",
"j	c #D0CBC9",
"k	c #CFD1CE",
"l	c #D6D0CF",
"m	c #D4D6D3",
"n	c #DBD5D4",
"o	c #DFD9D8",
"p	c #DBDDDA",
"q	c #E3DDDC",
"r	c #E7E1E0",
"s	c #E3E5E1",
"t	c #ECE6E5",
"u	c #F0EBE9",
"v	c #EDEFEC",
"w	c #F7F2F0",
"x	c #F4F6F3",
"y	c #FCF6F5",
"z	c #F9FBF8",
"                      @$%$+                     ",
"                    @,3lpn4,@                   ",
"                  +*6rrstuuu8&                  ",
"                 +,jrrttuuuvun=+                ",
"                +'nrrrttuuuwwwo*                ",
"                =lqrrstuuuwwwwwl%               ",
"               &fqqrrttuuuwwwyyy7@              ",
"              @2oqqrrsuuuwwxxyzzy]+             ",
"             +)ooqrrttuuvwwxzzzzzs&             ",
"             &hooqrrstuuvwwyyzzzzy[@            ",
"            @<nooqrrstuuuwwxzzzzzzv*            ",
"            *jnooqrrrtuuuwwxxyzzzyx1@           ",
"           @<lnooqqrrttuuuwwwyyyxxws&           ",
"           &jlnnooqrrttuuvwwwwwwxxww_+   .&.    ",
"          @(lln869daci6hdjecrjfgffovk@  .~:!+   ",
"          $clll96cf8oejghjjjhjnjhlovu' .~51_'.  ",
"          'jlll999cdhcdhfhhlgirikgnuu[.!555[/&  ",
"         +}jjll9a8ahfccmhcfhddrnqnqto)!555em1;. ",
"         $cjjll8daafbbdhcjhfhluutttq~!555epp1$  ",
"         >hhjjl48868acd8jfcbdtrtttp]'555bpp1%   ",
"        +(hhjjl643a3488aj9hf60cbpo^'155bpp5&    ",
"        @3fhhjj2c6684c8865al8crro^;[55bpp5&     ",
"        %dffhhj32a3c34483ccd846d(;:15bpp5*      ",
"        >ddfhhj3|86a|8d44cac81l_=_[1bps7=       ",
"        {cddfhha3a669h8c99dcan<=/:[7ms0=.       ",
"       +(cddffha3489a948aajlj<=~/:5ms0;,+       ",
"       +}ccddff8323ca38acahl[=!]_1ksb'_2@       ",
"       @}cccddf4|26a69ac34a2=!~/[isb'(j8@       ",
"       +3acccdd42362238a39l^'~]:gpe'(jjc@       ",
"       @4aacccd}|43|6|33cjc)5~/bpe!(hjjc@       ",
"       @3aaacccdddfffhhhhh<:p[7pb!^hjhhc@       ",
"       +|9aaaccccdddfffhhd)iss05!^fhhhha+       ",
"       @<89aaaccccddddfff2&1vm[;^dhhfff|@       ",
"       +(889aaaaccccddddd{+&/,^3dffffdd<+       ",
"       +)68899aaaccccccd8;={}addddddddd^@       ",
"        *666889aaaaccccc4<6cdddddddcccc>        ",
"        @|4668889aaaaacccccccccccccccca#        ",
"        +{446668899aaaaaacccccccccccca<@        ",
"         %244466888899aaaaaaaaaaaaaaaa>         ",
"         @{334466668888999aaaaaaaaaa9}@         ",
"          #}3334446668888889999999886-          ",
"           *|33344446666688888888888{@          ",
"           +-|333334444466666666666^@           ",
"            +*<2333333444444444444^@            ",
"             +%{|233333333344444|,@             ",
"               @&{}22333333333})%+              ",
"                 +$-{(}}}}}({-#+                ",
"                    +@@@#@@@+                   "};
